# File created by Blade
# Date/Time:  Thu Sep 25 18:48:06 2014
# Frame Rate: 120.000 fps
#------------------------------------------------------
:FULLY-SPECIFIED
:DEGREES
2420
root 0.736899 32.889285 1.490934 6.079679 2.102102 -0.396878
Spine -4.770623 3.317035 2.616542
Head -23.718789 -1.841259 9.409120
LeftShoulder -14.191112 14.964044 27.089390
LeftArm 21.470807 -22.501799 -32.695954
LeftForeArm 17.302559 -0.000000 17.400841
LeftHand -31.377160 0.000000 -1.508913
LeftHandThumb1 -26.253704 0.000000 33.147579
RightShoulder -20.873189 13.345055 -38.693951
RightArm -5.759170 7.296362 28.019945
RightForeArm -31.888576 0.000000 15.189353
RightHand -14.470128 -0.000000 12.360974
RightHandThumb1 -24.326973 -0.000000 -32.862282
LeftUpLeg -0.257304 9.266992 4.891159
LeftLeg -1.777027 -0.000000 0.000000
LeftFoot -8.008003 1.333551 -13.885886
LeftToeBase 11.326786 -0.000000 -0.000000
RightUpLeg 0.090796 -11.325462 -4.649725
RightLeg -0.071043 -0.000000 0.000000
RightFoot -6.249327 -3.890737 5.458173
RightToeBase 1.074761 -0.000000 -0.000000
2421
root 0.736530 32.887590 1.503009 6.018787 2.119220 -0.403019
Spine -4.700410 3.343132 2.633649
Head -23.793421 -1.866720 9.414265
LeftShoulder -14.170788 15.004537 27.072251
LeftArm 21.496799 -22.503274 -32.724875
LeftForeArm 17.251828 -0.000000 17.440269
LeftHand -31.408122 -0.000000 -1.452845
LeftHandThumb1 -26.253704 0.000000 33.147579
RightShoulder -20.890969 13.325616 -38.687482
RightArm -5.681576 7.172103 28.059273
RightForeArm -31.648083 0.000000 15.160650
RightHand -14.531598 -0.000000 12.406348
RightHandThumb1 -24.326973 -0.000000 -32.862282
LeftUpLeg -0.183020 9.244269 4.913140
LeftLeg -1.766112 -0.000000 0.000000
LeftFoot -8.038614 1.336238 -13.866703
LeftToeBase 11.351325 -0.000000 -0.000000
RightUpLeg 0.158701 -11.302081 -4.655651
RightLeg -0.031659 -0.000000 0.000000
RightFoot -6.292871 -3.918016 5.466922
RightToeBase 1.090757 -0.000000 -0.000000
2422
root 0.736058 32.885640 1.514619 5.957248 2.140483 -0.403923
Spine -4.626091 3.332126 2.650021
Head -23.853719 -1.848767 9.404467
LeftShoulder -14.190242 15.072712 27.027159
LeftArm 21.563827 -22.466871 -32.713793
LeftForeArm 17.163348 -0.000000 17.388495
LeftHand -31.400636 -0.000000 -1.426225
LeftHandThumb1 -26.253704 0.000000 33.147579
RightShoulder -20.864865 13.347035 -38.684240
RightArm -5.657633 7.185231 28.077214
RightForeArm -31.661685 0.000000 15.125233
RightHand -14.348477 -0.000000 12.545878
RightHandThumb1 -24.326973 -0.000000 -32.862282
LeftUpLeg -0.112881 9.232755 4.930699
LeftLeg -1.756923 -0.000000 0.000000
LeftFoot -8.011293 1.275428 -14.016852
LeftToeBase 11.157697 -0.000000 -0.000000
RightUpLeg 0.231867 -11.275991 -4.662072
RightLeg -0.012603 -0.000000 0.000000
RightFoot -6.292411 -3.952144 5.405469
RightToeBase 0.939319 -0.000000 -0.000000
2423
root 0.735667 32.884469 1.525481 5.897847 2.157918 -0.400737
Spine -4.551320 3.336003 2.659336
Head -23.922526 -1.817298 9.398770
LeftShoulder -14.182274 15.073503 26.989363
LeftArm 21.589200 -22.366991 -32.669882
LeftForeArm 17.134555 -0.000000 17.271027
LeftHand -31.271453 0.000000 -1.271289
LeftHandThumb1 -26.253704 0.000000 33.147579
RightShoulder -20.854402 13.358804 -38.651249
RightArm -5.593366 7.219853 28.068100
RightForeArm -31.645476 -0.000000 15.026620
RightHand -14.160262 0.000000 12.550029
RightHandThumb1 -24.326973 -0.000000 -32.862282
LeftUpLeg -0.043533 9.217038 4.939423
LeftLeg -1.725451 -0.000000 0.000000
LeftFoot -8.048495 1.289866 -13.770619
LeftToeBase 11.118935 -0.000000 -0.000000
RightUpLeg 0.298295 -11.239983 -4.674874
RightLeg 0.020446 -0.000000 -0.000000
RightFoot -6.341505 -4.002931 5.451788
RightToeBase 0.936114 -0.000000 -0.000000
2424
root 0.735633 32.882621 1.537275 5.833807 2.179495 -0.406235
Spine -4.472651 3.322866 2.679780
Head -23.971582 -1.753381 9.396397
LeftShoulder -14.202546 15.129244 26.971825
LeftArm 21.652005 -22.370167 -32.724347
LeftForeArm 17.095325 0.000000 17.222329
LeftHand -31.204646 -0.000000 -1.297243
LeftHandThumb1 -26.253704 0.000000 33.147579
RightShoulder -20.832450 13.380191 -38.659923
RightArm -5.584537 7.260366 28.108298
RightForeArm -31.707310 -0.000000 15.068559
RightHand -14.286708 0.000000 12.651796
RightHandThumb1 -24.326973 -0.000000 -32.862282
LeftUpLeg 0.029286 9.229090 4.962357
LeftLeg -1.709626 -0.000000 0.000000
LeftFoot -8.126943 1.263702 -13.866572
LeftToeBase 11.337236 -0.000000 -0.000000
RightUpLeg 0.381462 -11.211604 -4.682402
RightLeg 0.036550 -0.000000 -0.000000
RightFoot -6.378550 -4.052194 5.420565
RightToeBase 0.971404 -0.000000 -0.000000
2425
root 0.735083 32.880601 1.547807 5.783588 2.189189 -0.402866
Spine -4.410291 3.341885 2.679576
Head -24.019546 -1.707448 9.399256
LeftShoulder -14.194914 15.114780 26.992612
LeftArm 21.664953 -22.393453 -32.801343
LeftForeArm 17.011944 -0.000000 17.232299
LeftHand -31.148881 -0.000000 -1.424677
LeftHandThumb1 -26.253704 0.000000 33.147579
RightShoulder -20.819231 13.406467 -38.685306
RightArm -5.611663 7.367714 28.161058
RightForeArm -31.879859 -0.000000 15.116445
RightHand -14.376263 -0.000000 12.865229
RightHandThumb1 -24.326973 -0.000000 -32.862282
LeftUpLeg 0.089843 9.259429 4.972909
LeftLeg -1.696052 -0.000000 0.000000
LeftFoot -8.140204 1.209609 -13.879593
LeftToeBase 11.426297 -0.000000 -0.000000
RightUpLeg 0.441908 -11.200728 -4.698167
RightLeg 0.068591 -0.000000 -0.000000
RightFoot -6.438620 -4.099804 5.462806
RightToeBase 1.021184 -0.000000 -0.000000
